<svg height="1500" viewBox="0 0 1500 1500" width="1500" xmlns="http://www.w3.org/2000/svg"><path d="m500.906 1156.153 2.866-2.866 110.87 110.87-2.866 2.867z" fill="#231f20"/><path d="m500.906 1264.159 110.87-110.87 2.866 2.865-110.87 110.87z" fill="#231f20"/><path d="m502.632 1267.604-.563-4.014c.424-.06 42.693-6.313 72.763-36.384 30.071-30.07 36.324-72.339 36.384-72.763l4.014.563c-.062.437-6.477 44.011-37.532 75.066s-74.63 37.47-75.066 37.532z" fill="#231f20"/><path d="M557.786 1290.547c-20.598 0-41.188-7.837-56.869-23.518-15.19-15.19-23.556-35.387-23.556-56.869s8.366-41.679 23.556-56.869 35.387-23.556 56.869-23.556 41.679 8.366 56.869 23.556c31.357 31.357 31.357 82.38 0 113.738-15.677 15.677-36.276 23.518-56.869 23.518zm0-156.758c-20.399 0-39.578 7.944-54.002 22.369s-22.369 33.603-22.369 54.002 7.944 39.578 22.369 54.003c29.778 29.777 78.229 29.777 108.005 0 29.777-29.777 29.777-78.229 0-108.005-14.425-14.425-33.603-22.369-54.003-22.369z" fill="#231f20"/><path d="M535.878 1274.609c-1.227 0-2.417-.027-3.57-.077-17.939-.774-30.343-6.864-30.862-7.123l1.807-3.628c.121.06 12.278 6.005 29.398 6.708 22.855.94 43.261-7.408 60.659-24.806s25.744-37.807 24.805-60.659c-.703-17.12-6.648-29.277-6.708-29.398l3.628-1.807c.259.519 6.349 12.923 7.123 30.862.714 16.569-3.213 41.099-25.982 63.868-21.184 21.186-43.894 26.06-60.298 26.06z" fill="#231f20"/><path d="m504.357 1265.878-4.014-.563c.062-.437 6.477-44.012 37.531-75.066s74.63-37.47 75.066-37.531l.563 4.014c-.424.06-42.693 6.313-72.764 36.383s-36.322 72.34-36.382 72.763z" fill="#231f20"/><path d="M500.537 1266.5c-.259-.519-6.349-12.923-7.123-30.863-.715-16.569 3.213-41.099 25.982-63.868 22.769-22.77 47.301-26.701 63.868-25.982 17.939.773 30.344 6.864 30.863 7.123l-1.807 3.628c-.121-.06-12.279-6.005-29.398-6.708-22.848-.938-43.26 7.407-60.659 24.806s-25.744 37.807-24.806 60.659c.703 17.12 6.648 29.278 6.708 29.398z" fill="#231f20"/><path d="M580.654 1285.319c-3.128-7.836-13.402-29.062-41.183-56.843s-49.006-38.055-56.842-41.183l1.503-3.765c8.069 3.221 29.893 13.769 58.206 42.082s38.861 50.138 42.082 58.207zm-30.097 3.563c-3.222-8.862-10.967-23.33-29.564-41.927-18.701-18.701-33.224-26.436-42.114-29.632l1.371-3.814c9.28 3.336 24.378 11.35 43.609 30.581 19.124 19.124 27.146 34.161 30.508 43.409zm80.885-52.09c-8.069-3.221-29.894-13.769-58.207-42.082s-38.861-50.137-42.082-58.206l3.765-1.503c3.128 7.836 13.402 29.061 41.183 56.842s49.007 38.055 56.843 41.183zm3.681-30.052c-9.248-3.362-24.286-11.385-43.409-30.508-19.231-19.23-27.245-34.329-30.581-43.609l3.814-1.371c3.196 8.89 10.931 23.413 29.632 42.114 18.598 18.598 33.065 26.343 41.927 29.565z" fill="#231f20"/><path d="M120.816 458.421 884.763 336.11l52.083 325.309c2.124 13.263-6.907 25.737-20.17 27.86l-715.917 114.62c-13.263 2.123-25.737-6.907-27.86-20.17z" fill="#fff"/><path d="M196.857 806.238c-5.503 0-10.851-1.722-15.395-5.012-5.7-4.127-9.453-10.227-10.565-17.176l-52.404-327.31 2.001-.321 765.948-122.631 52.403 327.31c1.113 6.949-.547 13.916-4.674 19.616-4.128 5.7-10.228 9.453-17.177 10.565L201.079 805.9a26.67 26.67 0 0 1-4.222.338zm-73.72-346.136L174.9 783.409c1.944 12.138 13.392 20.431 25.539 18.489l715.917-114.621a22.146 22.146 0 0 0 14.533-8.939 22.149 22.149 0 0 0 3.956-16.599l-51.763-323.307z" fill="#231f20"/><path d="m130.172 363.018 715.917-114.621c13.263-2.123 25.737 6.907 27.86 20.17l10.814 67.542-763.947 122.312-10.814-67.542c-2.124-13.264 6.907-25.737 20.17-27.861z" fill="#fff"/><path d="M119.135 460.743 108 391.199c-2.296-14.345 7.506-27.885 21.851-30.182l715.917-114.621c14.336-2.293 27.884 7.505 30.182 21.851l11.134 69.543-2.001.321zm11.037-97.724.32 2.001c-12.138 1.944-20.433 13.4-18.489 25.539l10.493 65.541 759.945-121.67-10.493-65.542c-1.944-12.138-13.391-20.435-25.539-18.489L130.492 365.02z" fill="#231f20"/><circle cx="168.525" cy="403.83" fill="#231f20" r="14.649"/><circle cx="218.509" cy="395.827" fill="#231f20" r="14.649"/><circle cx="268.493" cy="387.825" fill="#231f20" r="14.649"/><path d="m186.361 525.21 656.973-105.193 2.23 13.922L188.59 539.132z" fill="#fff"/><path d="m186.909 541.468-2.871-17.925 2.001-.321 658.99-105.507 2.87 17.925-2.001.321zm1.773-14.564 1.588 9.92 652.987-104.546-1.589-9.92z" fill="#231f20"/><path d="m188.59 539.132 621.714-99.548 2.23 13.923-621.715 99.547z" fill="#231f20"/><path d="m195.474 582.124 593.752-95.07 2.23 13.922-593.753 95.07z" fill="#fff"/><path d="m196.021 598.384-2.87-17.925 2.001-.321 595.768-95.385 2.869 17.925-2.001.321zm1.774-14.564 1.588 9.92 589.765-94.423-1.588-9.92z" fill="#231f20"/><path d="m197.702 596.047 544.674-87.212 2.229 13.922-544.674 87.212z" fill="#231f20"/><path d="m204.586 639.04 532.815-85.314 2.23 13.922-532.816 85.313z" fill="#fff"/><path d="m205.134 655.3-2.871-17.925 2.001-.321 534.83-85.628 2.87 17.925-2.001.321zm1.773-14.564 1.588 9.92 528.826-84.667-1.588-9.92z" fill="#231f20"/><path d="m206.815 652.961 429.031-68.695 2.23 13.922-429.032 68.696z" fill="#231f20"/><path d="m213.699 695.954 571.091-91.442 2.23 13.923-571.092 91.441z" fill="#fff"/><path d="m214.247 712.217-2.87-17.926 2.001-.321 573.107-91.756 2.869 17.925-2.001.321zm1.773-14.565 1.588 9.921 567.104-90.795-1.588-9.92z" fill="#231f20"/><path d="m215.928 709.876 557.626-89.285 2.229 13.922L218.158 723.8z" fill="#231f20"/><path d="m179.91 497.74 4.003-.64 40.696 254.165-4.003.64z" fill="#231f20"/><path d="m887.789 414.129 546.735 35.194-18.943 294.274c-.863 13.404-12.429 23.571-25.833 22.708l-498.194-32.069c-13.404-.863-23.571-12.429-22.708-25.833z" fill="#fff"/><path d="M1391.349 768.383c-.575 0-1.151-.018-1.729-.056l-498.193-32.069c-14.498-.933-25.534-13.487-24.602-27.985l19.072-296.297 550.78 35.454-19.072 296.297c-.452 7.023-3.611 13.45-8.897 18.096-4.852 4.264-10.96 6.56-17.359 6.56zM889.682 416.282 870.87 708.533c-.789 12.268 8.549 22.891 20.816 23.68l498.193 32.069a22.153 22.153 0 0 0 16.151-5.504 22.15 22.15 0 0 0 7.529-15.312l18.812-292.251z" fill="#231f20"/><path d="m918.016 323.16 498.194 32.069c13.404.863 23.571 12.429 22.708 25.833l-4.394 68.261-546.735-35.194 4.394-68.261c.863-13.404 12.429-23.571 25.833-22.708z" fill="#fff"/><path d="m1436.417 451.476-550.78-35.454 4.524-70.284c.452-7.023 3.611-13.45 8.897-18.096 5.286-4.647 12.075-6.954 19.088-6.504l498.193 32.069c14.498.933 25.534 13.487 24.602 27.985zm-546.476-39.239 542.69 34.933 4.265-66.239c.789-12.268-8.549-22.891-20.816-23.68l-498.193-32.069c-5.941-.382-11.679 1.572-16.151 5.504s-7.146 9.37-7.529 15.312z" fill="#231f20"/><circle cx="946.392" cy="371.444" fill="#231f20" r="14.649"/><circle cx="996.908" cy="374.696" fill="#231f20" r="14.649"/><circle cx="1047.424" cy="377.947" fill="#231f20" r="14.649"/><path d="m923.067 685.518.26-4.045 441.547 28.407-.26 4.045zm455.482-186.932a.809.809 0 0 1-.76-.86c.03-.45.42-.79.86-.76a.81.81 0 0 1-.05 1.62h-.05zm-8.09-.52a.808.808 0 0 1-.76-.86c.03-.45.42-.79.86-.76a.81.81 0 0 1-.051 1.62h-.049zm-8.09-.52a.814.814 0 0 1-.76-.86c.03-.45.42-.79.86-.76a.81.81 0 0 1-.051 1.62h-.049zm-8.09-.52a.814.814 0 0 1-.76-.86c.029-.45.42-.79.859-.76a.81.81 0 0 1-.05 1.62h-.049zm-8.09-.52a.817.817 0 0 1-.76-.87.805.805 0 0 1 .859-.75.81.81 0 0 1-.05 1.62h-.049zm-8.089-.52a.815.815 0 0 1-.761-.86c.03-.45.41-.79.86-.76.45.03.79.41.76.86a.817.817 0 0 1-.81.76h-.049zm-8.091-.52a.818.818 0 0 1-.76-.87c.03-.44.41-.78.86-.75a.81.81 0 0 1-.05 1.62h-.05zm-8.09-.53a.803.803 0 0 1-.76-.86.813.813 0 0 1 1.62.11c-.03.43-.39.76-.81.76-.02 0-.03 0-.05-.01zm-8.09-.52a.807.807 0 1 1 .1-1.61c.449.03.779.41.76.86a.81.81 0 0 1-.811.75h-.049zm-8.09-.52a.808.808 0 0 1-.76-.86.8.8 0 0 1 .859-.75c.45.02.79.41.761.86a.818.818 0 0 1-.811.76c-.018 0-.039-.01-.049-.01zm-8.09-.52a.808.808 0 0 1-.76-.86.82.82 0 0 1 .859-.76c.45.03.79.42.76.87a.815.815 0 0 1-.81.75h-.049zm-8.089-.52a.81.81 0 0 1-.761-.86c.03-.45.41-.79.86-.76a.81.81 0 0 1-.05 1.62h-.049zm-8.09-.52a.81.81 0 0 1-.761-.86c.03-.45.41-.79.86-.76.45.03.79.42.76.87-.03.42-.39.75-.81.75h-.049zm-8.091-.52a.809.809 0 0 1-.76-.86c.03-.45.41-.79.86-.76.45.03.779.42.76.86-.03.43-.39.76-.81.76h-.05zm-8.09-.52a.814.814 0 0 1-.76-.86c.03-.45.41-.79.86-.76.449.03.79.42.76.86a.818.818 0 0 1-.811.76h-.049zm-8.09-.52a.814.814 0 0 1-.76-.86c.03-.45.41-.79.859-.76.45.03.78.41.761.86a.818.818 0 0 1-.811.76h-.049zm-8.099-.52a.813.813 0 0 1 .109-1.62.81.81 0 0 1-.05 1.62h-.059zm-8.08-.52a.815.815 0 0 1-.761-.86c.03-.45.41-.79.86-.76.45.03.78.41.76.86a.817.817 0 0 1-.81.76h-.049zm-8.101-.52a.814.814 0 0 1-.75-.86c.03-.45.41-.79.86-.76.44.03.78.41.76.86-.03.43-.39.76-.81.76h-.06zm-8.09-.53a.802.802 0 0 1-.75-.86c.03-.44.41-.78.86-.75.45.03.78.41.76.86-.03.43-.39.76-.81.76-.02 0-.039 0-.06-.01zm-8.09-.51a.816.816 0 0 1-.75-.87.807.807 0 1 1 1.61.11.804.804 0 0 1-.811.76h-.049zm-8.09-.53a.807.807 0 0 1 .109-1.61c.44.02.78.41.761.86a.818.818 0 0 1-.811.76c-.019 0-.039-.01-.059-.01zm-8.089-.52a.807.807 0 0 1 .109-1.61c.45.02.78.41.75.86a.8.8 0 0 1-.8.75h-.059zm-8.09-.52a.807.807 0 0 1-.75-.86.813.813 0 0 1 .859-.76c.44.03.78.42.75.87-.02.43-.38.75-.8.75h-.059zm-8.091-.52a.808.808 0 0 1-.75-.86.806.806 0 1 1 1.61.1c-.02.43-.38.76-.8.76h-.06zm-8.09-.52a.807.807 0 0 1-.75-.86.81.81 0 0 1 .86-.76c.439.03.78.42.75.86a.804.804 0 0 1-.811.76h-.049zm-8.09-.52a.807.807 0 0 1-.75-.86c.03-.45.41-.79.86-.76.439.03.779.42.75.86a.802.802 0 0 1-.801.76h-.059zm-8.09-.52a.813.813 0 0 1-.75-.86c.02-.45.41-.79.86-.76.439.03.779.42.75.86a.803.803 0 0 1-.801.76h-.059zm-8.089-.52a.83.83 0 0 1-.761-.86c.04-.45.421-.79.87-.76.44.03.78.41.75.86a.807.807 0 0 1-.8.76h-.059zm-8.09-.52a.813.813 0 0 1-.75-.86.807.807 0 1 1 1.609.1c-.02.43-.38.76-.81.76h-.049zm-8.091-.52a.807.807 0 0 1-.75-.86.807.807 0 1 1 1.61.1c-.03.43-.38.76-.8.76h-.06zm-8.09-.52a.81.81 0 0 1-.75-.87c.021-.44.41-.78.86-.75a.81.81 0 0 1-.061 1.62h-.049zm-8.09-.53a.813.813 0 0 1-.76-.85c.03-.45.42-.79.87-.76.439.03.779.41.75.86a.802.802 0 0 1-.8.76c-.02 0-.039 0-.06-.01zm-8.09-.52a.822.822 0 0 1-.76-.86c.029-.44.42-.78.87-.75.439.03.779.41.75.86a.817.817 0 0 1-.801.76c-.019 0-.039-.01-.059-.01zm-8.09-.52c-.45-.02-.78-.41-.76-.86.029-.44.42-.78.859-.75.45.02.79.41.76.86a.81.81 0 0 1-.81.76c-.008 0-.029 0-.049-.01zm-8.089-.52a.81.81 0 0 1-.761-.86c.03-.44.42-.78.87-.76.44.03.78.42.75.87a.808.808 0 0 1-.81.75h-.049zm-8.091-.52a.816.816 0 0 1-.76-.86c.03-.45.42-.78.86-.75a.8.8 0 0 1 .76.85.81.81 0 0 1-.81.76h-.05zm-8.09-.52a.815.815 0 0 1-.76-.86c.03-.45.42-.78.87-.76.439.03.78.42.75.87a.81.81 0 0 1-.811.75h-.049zm-8.09-.52a.808.808 0 0 1-.76-.86c.03-.45.42-.79.86-.76.449.03.789.42.76.86-.03.43-.38.76-.8.76h-.06zm-8.09-.52a.82.82 0 0 1-.76-.86c.029-.45.42-.79.859-.76a.811.811 0 0 1-.05 1.62h-.049zm-8.09-.52a.808.808 0 0 1-.76-.86c.029-.45.42-.79.859-.76a.81.81 0 0 1-.05 1.62h-.049zm-8.089-.52a.815.815 0 0 1-.761-.86c.03-.45.42-.79.86-.76.45.03.79.41.76.86a.807.807 0 0 1-.8.76h-.059zm-8.091-.52a.815.815 0 0 1-.76-.86c.03-.45.42-.79.86-.76a.81.81 0 0 1-.05 1.62h-.05zm-8.09-.52a.815.815 0 0 1-.76-.86c.03-.45.41-.79.86-.76a.81.81 0 0 1-.05 1.62h-.05zm-8.09-.53a.8.8 0 0 1-.76-.85c.03-.45.42-.79.86-.76a.81.81 0 0 1-.051 1.62c-.009 0-.028 0-.049-.01zm-8.09-.51a.817.817 0 0 1-.76-.87.812.812 0 1 1 .809.87h-.049zm-8.09-.53a.802.802 0 0 1-.76-.86c.029-.44.42-.78.859-.75.45.02.79.41.76.86a.81.81 0 0 1-.81.76c-.018 0-.029 0-.049-.01zm-8.089-.52a.807.807 0 1 1 .099-1.61c.45.03.79.41.76.86a.817.817 0 0 1-.81.76c-.02 0-.03 0-.049-.01zm-8.09-.52a.81.81 0 0 1-.761-.86c.03-.45.41-.78.86-.76.45.03.79.42.76.87-.03.43-.38.75-.81.75h-.049zm-8.091-.52a.809.809 0 0 1-.76-.86.8.8 0 0 1 .86-.75c.45.02.79.41.76.86a.81.81 0 0 1-.81.75h-.05zm-8.09-.52a.808.808 0 0 1-.76-.86.82.82 0 0 1 .86-.76c.449.03.79.42.76.86a.818.818 0 0 1-.811.76h-.049zm-8.09-.52a.808.808 0 0 1-.76-.86c.03-.45.41-.79.859-.76.45.03.79.42.761.86a.818.818 0 0 1-.811.76h-.049zm-8.09-.52a.808.808 0 0 1-.76-.86.807.807 0 0 1 .859-.76.811.811 0 0 1-.05 1.62h-.049zm-8.089-.52a.815.815 0 0 1-.761-.86c.03-.45.41-.79.86-.76.45.03.79.41.76.86a.817.817 0 0 1-.81.76h-.049zm-8.09-.52a.815.815 0 0 1-.761-.86c.03-.45.41-.79.86-.76.45.03.79.42.76.86-.03.43-.39.76-.81.76h-.049zm432.279 99.49a.808.808 0 0 1-.76-.86c.03-.44.41-.78.86-.76.439.03.779.42.76.87-.03.42-.39.76-.811.76-.019 0-.038-.01-.049-.01zm-8.1-.52a.807.807 0 0 1-.75-.86c.03-.45.41-.79.86-.75.439.02.779.41.76.85a.818.818 0 0 1-.811.76h-.059zm-8.08-.52a.808.808 0 0 1-.76-.86c.029-.45.41-.78.859-.76.45.03.78.42.75.86-.02.43-.38.76-.8.76h-.049zm-8.099-.52a.807.807 0 0 1-.75-.86.807.807 0 0 1 .859-.76c.44.03.78.42.76.86a.817.817 0 0 1-.81.76h-.059zm-8.091-.52a.808.808 0 0 1-.75-.86c.03-.45.41-.79.86-.76.44.03.78.42.75.86-.02.43-.38.76-.8.76h-.06zm-8.09-.52a.814.814 0 0 1-.75-.86c.021-.45.41-.79.86-.76.439.03.78.42.75.86a.802.802 0 0 1-.8.76h-.06zm-8.09-.52a.807.807 0 0 1-.75-.86c.03-.45.41-.79.86-.76.439.03.779.41.75.86a.804.804 0 0 1-.811.76h-.049zm-8.09-.52a.813.813 0 0 1 .11-1.62c.439.03.779.41.75.86a.803.803 0 0 1-.801.76h-.059zm-8.09-.52a.813.813 0 0 1-.75-.86.807.807 0 1 1 1.609.1c-.02.43-.38.76-.8.76h-.059zm-8.089-.52a.833.833 0 0 1-.761-.87c.03-.44.42-.78.87-.75.44.03.78.41.75.86a.807.807 0 0 1-.8.76h-.059zm-8.091-.52a.832.832 0 0 1-.76-.87c.03-.44.42-.78.87-.75.44.03.78.41.75.86a.81.81 0 0 1-.81.76h-.05zm-8.09-.53a.823.823 0 0 1-.76-.86c.03-.44.42-.78.87-.75a.81.81 0 0 1-.061 1.62c-.009 0-.029-.01-.049-.01zm-8.09-.52a.8.8 0 0 1-.75-.86c.021-.44.41-.78.86-.75.439.02.779.41.75.86a.8.8 0 0 1-.8.75h-.06zm-8.09-.52a.822.822 0 0 1-.76-.86c.029-.44.42-.78.87-.75.439.03.779.41.75.86a.819.819 0 0 1-.811.76c-.009 0-.029-.01-.049-.01zm-8.09-.52a.815.815 0 0 1-.76-.86c.029-.45.42-.78.869-.76.44.03.78.42.75.86a.81.81 0 0 1-.81.76h-.049zm-8.089-.52a.816.816 0 0 1-.761-.86c.03-.45.42-.78.87-.76.44.03.78.42.75.87a.808.808 0 0 1-.81.75h-.049zm-8.091-.52a.816.816 0 0 1-.76-.86c.03-.45.42-.79.86-.76.45.03.79.42.76.86-.03.43-.38.76-.8.76h-.06zm-8.09-.52a.809.809 0 0 1-.76-.86c.03-.45.42-.79.86-.76a.81.81 0 0 1-.05 1.62h-.05zm-8.09-.52a.815.815 0 0 1-.76-.86c.03-.45.42-.79.86-.76a.81.81 0 0 1-.051 1.62h-.049zm-8.09-.52a.814.814 0 0 1-.76-.86c.029-.45.42-.79.859-.76a.81.81 0 0 1-.05 1.62h-.049zm-8.09-.52a.814.814 0 0 1-.76-.86c.029-.45.42-.79.859-.76.45.03.79.41.76.86a.807.807 0 0 1-.8.76h-.059zm-8.089-.52a.815.815 0 0 1-.761-.86c.03-.45.421-.79.86-.76a.81.81 0 0 1-.05 1.62h-.049zm-8.09-.52a.819.819 0 0 1-.761-.87.813.813 0 0 1 1.62.11.81.81 0 0 1-.81.76h-.049zm-8.091-.53a.803.803 0 0 1-.76-.86.813.813 0 0 1 1.62.11.81.81 0 0 1-.81.76c-.02 0-.03 0-.05-.01zm-8.09-.51a.823.823 0 0 1-.76-.87.813.813 0 0 1 1.62.11.818.818 0 0 1-.811.76h-.049zm-8.09-.53a.802.802 0 0 1-.76-.86c.03-.44.41-.78.859-.76.45.03.79.42.761.87-.03.42-.38.76-.811.76-.019 0-.039 0-.049-.01zm-8.09-.52a.808.808 0 0 1-.76-.86c.029-.45.42-.78.859-.75.45.02.79.41.761.86a.803.803 0 0 1-.811.75h-.049zm-8.089-.52a.81.81 0 0 1-.761-.86c.03-.45.41-.78.86-.76.45.03.79.42.76.87a.808.808 0 0 1-.81.75h-.049zm-8.09-.52a.81.81 0 0 1-.761-.86c.03-.45.42-.79.86-.76.45.03.79.42.76.86-.03.43-.39.76-.81.76h-.049zm-8.091-.52a.809.809 0 0 1-.76-.86c.03-.45.41-.79.86-.76.45.03.79.42.76.86-.03.43-.39.76-.81.76h-.05zm-8.09-.52a.808.808 0 0 1-.76-.86c.03-.45.41-.79.86-.76.449.03.79.42.76.86-.03.43-.39.76-.811.76h-.049zm-8.09-.52a.808.808 0 0 1-.76-.86c.03-.45.41-.79.859-.76a.81.81 0 0 1-.05 1.62h-.049zm-8.09-.52a.814.814 0 0 1-.76-.86c.029-.45.41-.79.859-.76a.81.81 0 0 1-.05 1.62h-.049zm-8.09-.52a.814.814 0 0 1-.76-.86.807.807 0 0 1 .859-.76c.45.03.79.41.76.86a.817.817 0 0 1-.81.76h-.049zm-8.089-.52a.815.815 0 0 1-.761-.86c.03-.45.41-.79.86-.76.45.03.79.41.76.86a.817.817 0 0 1-.81.76h-.049zm-8.101-.52a.817.817 0 0 1-.75-.87c.03-.44.41-.78.86-.75.45.03.79.41.76.86-.03.43-.39.76-.81.76h-.06zm-8.08-.53a.807.807 0 1 1 .1-1.61c.449.03.779.41.76.86-.03.43-.39.76-.811.76-.019 0-.038 0-.049-.01zm-8.09-.51a.817.817 0 0 1-.76-.87c.03-.44.41-.78.86-.75.449.02.779.41.76.86a.818.818 0 0 1-.811.76h-.049zm-8.09-.53a.802.802 0 0 1-.76-.86.82.82 0 0 1 .859-.76c.45.03.78.42.75.87-.02.42-.38.76-.8.76-.018 0-.039 0-.049-.01zm-8.099-.52a.807.807 0 0 1-.75-.86.799.799 0 0 1 .859-.75c.45.02.79.41.76.86a.808.808 0 0 1-.81.75h-.059zm-8.091-.52a.808.808 0 0 1-.75-.86c.03-.45.41-.78.86-.76.45.03.78.42.76.87a.815.815 0 0 1-.81.75h-.06zm-8.09-.52a.808.808 0 0 1-.75-.86c.03-.45.41-.79.86-.76.439.03.78.42.76.86-.03.43-.39.76-.81.76h-.06zm-8.08-.52a.809.809 0 0 1-.76-.86c.03-.45.41-.79.86-.76a.83.83 0 0 1 .76.86c-.03.43-.39.76-.81.76h-.05zm-8.1-.52a.807.807 0 0 1-.75-.86c.03-.45.41-.79.86-.76a.83.83 0 0 1 .76.86.818.818 0 0 1-.811.76h-.059zm-8.09-.52a.807.807 0 0 1-.75-.86c.029-.45.41-.79.859-.76.45.03.78.41.761.86a.818.818 0 0 1-.811.76h-.059zm-8.089-.52a.813.813 0 0 1 .109-1.62c.45.03.78.42.75.86-.02.43-.38.76-.8.76h-.059zm-8.091-.52a.814.814 0 0 1-.75-.86.807.807 0 1 1 1.61.1c-.02.43-.38.76-.8.76h-.06zm-8.09-.52a.817.817 0 0 1-.75-.87.807.807 0 1 1 1.61.11.802.802 0 0 1-.8.76h-.06zm-8.09-.52a.814.814 0 0 1-.75-.86c.03-.45.41-.79.86-.76.439.03.779.41.75.86a.804.804 0 0 1-.811.76h-.049zm-8.09-.53a.8.8 0 0 1-.75-.86.807.807 0 1 1 1.61.11.803.803 0 0 1-.801.76c-.019 0-.039 0-.059-.01zm-8.09-.52a.8.8 0 0 1-.75-.86.8.8 0 0 1 .859-.75c.44.03.78.41.761.86a.818.818 0 0 1-.811.76c-.019 0-.039 0-.059-.01zm-8.089-.52a.823.823 0 0 1-.761-.86c.03-.44.42-.78.87-.75.44.03.78.41.75.86-.02.43-.38.76-.8.76-.019 0-.04-.01-.059-.01zm-8.091-.52a.801.801 0 0 1-.75-.86c.021-.45.41-.78.86-.75a.8.8 0 0 1 .75.86c-.03.43-.38.75-.81.75h-.05zm-8.09-.52a.823.823 0 0 1-.76-.86c.03-.45.42-.78.87-.76.44.03.78.42.75.87a.81.81 0 0 1-.81.75h-.05zm-8.09-.52a.8.8 0 0 1-.75-.86c.021-.45.41-.79.86-.76.439.03.78.42.75.86a.804.804 0 0 1-.811.76h-.049zm432.28 99.5a.817.817 0 0 1-.76-.87.812.812 0 1 1 .809.87h-.049zm-8.089-.53a.804.804 0 0 1-.761-.86c.03-.44.421-.78.86-.75.45.02.79.41.76.86a.81.81 0 0 1-.81.76c-.02 0-.03 0-.049-.01zm-8.09-.52a.81.81 0 0 1-.761-.86.813.813 0 0 1 1.62.11.81.81 0 0 1-.81.76c-.02 0-.03-.01-.049-.01zm-8.091-.52a.809.809 0 0 1-.76-.86.813.813 0 0 1 1.62.11c-.03.43-.38.75-.81.75h-.05zm-8.09-.52a.806.806 0 1 1 .1-1.61c.449.02.79.41.76.86-.03.42-.39.75-.811.75h-.049zm-8.09-.52a.808.808 0 0 1-.76-.86.82.82 0 0 1 .859-.76c.45.03.79.42.761.87a.81.81 0 0 1-.811.75h-.049zm-8.09-.52a.808.808 0 0 1-.76-.86c.029-.45.42-.79.859-.76.45.03.79.42.761.86a.818.818 0 0 1-.811.76h-.049zm-8.09-.52a.808.808 0 0 1-.76-.86.807.807 0 0 1 .859-.76.81.81 0 0 1-.05 1.62h-.049zm-8.089-.52a.815.815 0 0 1-.761-.86c.03-.45.41-.79.86-.76.45.03.79.42.76.86a.817.817 0 0 1-.81.76h-.049zm-8.091-.52a.809.809 0 0 1-.76-.86c.03-.45.41-.79.86-.76.45.03.79.42.76.86-.03.43-.39.76-.81.76h-.05zm-8.09-.52a.814.814 0 0 1-.76-.86c.03-.45.41-.79.86-.76.449.03.79.41.76.86-.03.43-.39.76-.811.76h-.049zm-8.09-.52a.814.814 0 0 1-.76-.86c.03-.45.41-.79.86-.76a.81.81 0 0 1 .76.86.818.818 0 0 1-.811.76h-.049zm-8.09-.52a.814.814 0 0 1-.76-.86c.029-.45.41-.79.859-.76a.81.81 0 0 1-.05 1.62h-.049zm-8.09-.53a.8.8 0 0 1-.76-.85.807.807 0 0 1 .859-.76.81.81 0 0 1-.05 1.62c-.018 0-.029 0-.049-.01zm-8.1-.51a.817.817 0 0 1-.75-.87c.03-.44.41-.78.86-.75.45.03.79.41.76.86a.817.817 0 0 1-.81.76h-.06zm-8.08-.53a.807.807 0 1 1 .1-1.61c.45.02.79.41.76.86-.03.43-.39.76-.81.76-.02 0-.039 0-.05-.01zm-8.09-.52a.807.807 0 1 1 .1-1.61c.45.02.779.41.76.86-.03.43-.39.76-.81.76-.02 0-.039-.01-.05-.01zm-8.09-.52a.808.808 0 0 1-.76-.86c.03-.44.41-.78.86-.76.449.03.779.42.76.87a.81.81 0 0 1-.811.75h-.049zm-8.09-.52a.808.808 0 0 1-.76-.86c.029-.45.41-.79.859-.75a.8.8 0 0 1 .761.85.818.818 0 0 1-.811.76h-.049zm-8.099-.52a.807.807 0 0 1-.75-.86.807.807 0 0 1 .859-.76c.45.03.78.42.76.86a.817.817 0 0 1-.81.76h-.059zm-8.091-.52a.808.808 0 0 1-.75-.86c.03-.45.41-.79.86-.76.44.03.78.42.76.86a.817.817 0 0 1-.81.76h-.06zm-8.09-.52a.808.808 0 0 1-.75-.86.806.806 0 1 1 1.61.1.802.802 0 0 1-.8.76h-.06zm-8.09-.52a.814.814 0 0 1-.75-.86c.03-.45.41-.79.86-.76.45.03.779.41.76.86-.03.43-.39.76-.81.76h-.06zm-8.09-.52a.813.813 0 0 1 .11-1.62c.449.03.779.42.76.86a.818.818 0 0 1-.811.76h-.059zm-8.09-.52a.813.813 0 0 1 .109-1.62.8.8 0 0 1 .75.86c-.02.43-.38.76-.8.76h-.059zm-8.089-.52a.813.813 0 0 1 .109-1.62c.44.03.78.41.75.86-.02.43-.38.76-.8.76h-.059zm-8.091-.52a.817.817 0 0 1-.75-.87.807.807 0 1 1 1.61.11c-.02.43-.38.76-.8.76h-.06zm-8.09-.53a.802.802 0 0 1-.75-.86.807.807 0 1 1 1.61.11.802.802 0 0 1-.8.76c-.02 0-.04 0-.06-.01zm-8.09-.52a.807.807 0 1 1 .86-.75.804.804 0 0 1-.811.76c-.009 0-.028-.01-.049-.01zm-8.09-.52a.807.807 0 0 1-.75-.86.8.8 0 0 1 .86-.75.8.8 0 0 1 .75.85.795.795 0 0 1-.801.76h-.059zm-8.09-.52a.822.822 0 0 1-.76-.86c.029-.45.42-.78.869-.76a.816.816 0 0 1-.06 1.63c-.009 0-.029-.01-.049-.01zm-8.089-.52a.823.823 0 0 1-.761-.86c.03-.45.421-.78.87-.76.44.03.78.42.75.87a.8.8 0 0 1-.8.75h-.059zm-8.09-.52a.807.807 0 0 1-.75-.86c.02-.45.409-.79.859-.76.44.03.78.42.75.86-.02.43-.38.76-.8.76h-.059zm-8.091-.52a.823.823 0 0 1-.76-.86c.04-.45.42-.79.87-.76a.81.81 0 0 1-.06 1.62h-.05zm-8.09-.52a.807.807 0 0 1-.75-.86c.021-.45.41-.79.86-.76.439.03.78.42.75.86a.804.804 0 0 1-.811.76h-.049zm-8.09-.52a.808.808 0 0 1-.76-.86c.03-.45.42-.79.859-.76a.81.81 0 0 1-.05 1.62h-.049zm-8.09-.52a.828.828 0 0 1-.76-.86c.029-.45.42-.79.859-.76a.81.81 0 0 1-.05 1.62h-.049zm-8.089-.52a.822.822 0 0 1-.761-.86c.03-.45.421-.79.87-.76.44.03.78.41.75.86a.807.807 0 0 1-.8.76h-.059zm-8.09-.52a.819.819 0 0 1-.761-.87.813.813 0 0 1 1.62.11.81.81 0 0 1-.81.76h-.049zm-8.091-.52a.822.822 0 0 1-.76-.86c.03-.45.42-.79.87-.76.44.03.78.41.75.86a.81.81 0 0 1-.81.76h-.05zm-8.09-.52a.817.817 0 0 1-.76-.87.813.813 0 0 1 1.62.11.81.81 0 0 1-.811.76h-.049zm-8.09-.53a.802.802 0 0 1-.76-.86c.03-.44.42-.78.859-.75.45.02.79.41.761.86a.81.81 0 0 1-.811.76c-.009 0-.028 0-.049-.01zm-8.09-.52a.815.815 0 0 1-.76-.86c.029-.44.42-.78.859-.76.45.03.79.42.761.87a.819.819 0 0 1-.811.76c-.018 0-.029-.01-.049-.01zm-8.09-.52a.808.808 0 0 1-.76-.86.82.82 0 0 1 .859-.76c.45.03.79.42.76.86a.802.802 0 0 1-.81.76h-.049zm-8.089-.52a.81.81 0 0 1-.761-.86c.03-.45.42-.79.86-.76a.81.81 0 0 1-.05 1.62h-.049zm-8.091-.52a.809.809 0 0 1-.76-.86c.03-.45.41-.78.86-.76.45.03.79.42.76.87a.81.81 0 0 1-.81.75h-.05zm-8.09-.52a.808.808 0 0 1-.76-.86c.03-.45.42-.79.86-.76a.81.81 0 0 1-.051 1.62h-.049zm-8.09-.52a.808.808 0 0 1-.76-.86c.03-.45.42-.79.86-.76a.81.81 0 0 1-.051 1.62h-.049zm-8.09-.52a.814.814 0 0 1-.76-.86c.029-.45.41-.79.859-.76a.81.81 0 0 1-.05 1.62h-.049zm-8.09-.52a.814.814 0 0 1-.76-.86.807.807 0 0 1 .859-.76.81.81 0 0 1-.05 1.62h-.049zm-8.089-.52a.815.815 0 0 1-.761-.86c.03-.45.41-.79.86-.76.45.03.79.41.76.86a.817.817 0 0 1-.81.76h-.049zm-8.091-.52a.815.815 0 0 1-.76-.86c.03-.45.41-.79.86-.76.45.03.79.41.76.86-.03.43-.39.76-.81.76h-.05zm-8.09-.52a.818.818 0 0 1-.76-.87.813.813 0 0 1 1.62.11.81.81 0 0 1-.81.76h-.05zm-8.09-.53a.807.807 0 1 1 .1-1.61c.449.02.79.41.76.86a.818.818 0 0 1-.811.76c-.019 0-.039 0-.049-.01zm-8.09-.52a.806.806 0 1 1 .099-1.61c.45.03.79.41.761.86a.81.81 0 0 1-.811.75h-.049z" fill="#231f20"/><path d="M1194.949 664.323c-1.339 0-2.689-.043-4.067-.132-45.162-2.907-63.136-39.511-80.519-74.91-17.566-35.773-35.731-72.763-82.178-75.753-55.785-3.586-75.682 27.924-91.658 53.248l-1.469 2.324a2.027 2.027 0 0 1-3.425-2.168l1.465-2.319c8.138-12.897 17.359-27.516 31.893-38.559 16.864-12.813 37.626-18.233 63.454-16.571 48.79 3.141 67.48 41.203 85.556 78.012 17.651 35.944 34.322 69.895 77.141 72.651 39.606 2.549 62.247-35.714 86.262-76.22 24.269-40.937 51.774-87.335 101.397-97.698a2.026 2.026 0 1 1 .828 3.967c-47.875 9.998-73.732 53.615-98.739 95.797-23.858 40.243-46.442 78.326-85.941 78.331z" fill="#231f20"/><path d="M936.256 612.733c-1.758 0-3.548-.058-5.384-.176a2.028 2.028 0 0 1 .259-4.045c46.207 2.971 66.406-35.376 85.938-72.464 18.327-34.798 37.31-70.778 77.837-68.169 40.196 2.587 54.103 28.369 67.551 53.302 13.957 25.877 28.39 52.634 72.708 55.487 48.338 3.105 103.238-30.15 140.802-58.6a2.026 2.026 0 1 1 2.447 3.231c-69.049 52.297-116.158 61.175-143.509 59.414-46.56-2.997-61.534-30.759-76.016-57.608-13.519-25.064-26.288-48.738-64.243-51.181-37.945-2.429-55.451 30.809-73.99 66.013-19.377 36.794-39.395 74.796-84.4 74.796z" fill="#231f20"/><path d="m955.217 834.99 369.382-23.484 26.334 414.211c.852 13.405-9.324 24.963-22.729 25.815l-320.838 20.398c-13.405.852-24.963-9.324-25.815-22.729z" fill="#fff"/><path d="M1005.806 1274.006c-13.772 0-25.392-10.743-26.277-24.677l-26.463-416.233 373.428-23.742.128 2.023 26.334 414.21c.447 7.023-1.868 13.8-6.519 19.083-4.651 5.282-11.08 8.437-18.104 8.883l-320.838 20.398c-.565.037-1.13.055-1.689.055zm-48.438-437.122 26.205 412.188c.78 12.268 11.418 21.617 23.664 20.835l320.838-20.398a22.144 22.144 0 0 0 15.318-7.517 22.144 22.144 0 0 0 5.517-16.147l-26.206-412.188z" fill="#231f20"/><path d="m973.605 740.911 320.838-20.398c13.405-.852 24.963 9.324 25.815 22.729l4.34 68.265-369.381 23.483-4.34-68.265c-.853-13.404 9.323-24.962 22.728-25.814z" fill="#fff"/><g fill="#231f20"><path d="m953.322 837.142-4.468-70.288c-.447-7.023 1.868-13.8 6.519-19.083 4.651-5.282 11.08-8.437 18.104-8.883l.129 2.022-.129-2.022 320.838-20.398c14.485-.923 27.045 10.123 27.967 24.623l4.469 70.287zm342.679-114.653c-.474 0-.95.015-1.429.045l-320.838 20.398a22.144 22.144 0 0 0-15.318 7.517 22.144 22.144 0 0 0-5.517 16.147l4.212 66.242 365.336-23.227-4.211-66.242c-.75-11.788-10.582-20.88-22.235-20.88z"/><circle cx="1007.902" cy="785.185" r="14.649"/><circle cx="1058.421" cy="781.973" r="14.649"/><circle cx="1108.94" cy="778.762" r="14.649"/><path d="m1034.69 1068.44 21.11-1.342 9.43 148.419-21.111 1.34zm26.567-77.272 21.111-1.342 14.211 223.7-21.11 1.34zm25.726-90.538 21.11-1.341 19.836 312.244-21.11 1.341zm34.612 49.362 21.11-1.34 16.574 260.89-21.11 1.34zm35.005 55.537 21.111-1.341 12.92 203.362-21.111 1.341zm28.34-49.365 21.111-1.34 15.929 250.735-21.111 1.34zm28.495-46.948 21.11-1.342 18.785 295.693-21.11 1.34zm34.896 53.821 21.11-1.342 15.24 239.88-21.111 1.34z"/></g><path d="m1296.543 1200.743-264.203 16.797" fill="#fff"/><path d="m1032.228 1215.578 264.208-16.838.257 4.045-264.207 16.838z" fill="#231f20"/><path d="m464.821 694.402 546.735 35.194-28.891 448.831c-.863 13.404-12.429 23.571-25.833 22.708l-498.194-32.069c-13.404-.863-23.571-12.429-22.708-25.833z" fill="#fff"/><path d="M958.412 1203.213a26.53 26.53 0 0 1-1.71-.055l-498.194-32.069c-7.023-.452-13.45-3.612-18.096-8.898s-6.957-12.064-6.504-19.088l29.021-450.854 550.78 35.454-.13 2.023-28.892 448.831c-.896 13.924-12.513 24.656-26.275 24.656zM466.714 696.555l-28.762 446.809c-.79 12.268 8.548 22.891 20.816 23.68l498.193 32.069c12.274.797 22.891-8.549 23.681-20.816l28.762-446.808z" fill="#231f20"/><path d="m495.048 603.433 498.194 32.069c13.404.863 23.571 12.429 22.708 25.833l-4.394 68.261-546.735-35.194 4.394-68.261c.863-13.404 12.429-23.571 25.833-22.708z" fill="#fff"/><path d="m1013.449 731.749-550.781-35.454 4.524-70.284c.452-7.023 3.612-13.45 8.898-18.096s12.06-6.955 19.088-6.504l498.193 32.069c7.023.452 13.45 3.612 18.097 8.898 4.646 5.286 6.956 12.064 6.504 19.088zm-546.475-39.24 542.69 34.934 4.264-66.239c.383-5.942-1.572-11.678-5.504-16.151s-9.369-7.146-15.312-7.529l-498.194-32.069c-5.943-.38-11.679 1.572-16.151 5.504a22.15 22.15 0 0 0-7.529 15.312z" fill="#231f20"/><circle cx="523.424" cy="651.717" fill="#231f20" r="14.649"/><circle cx="573.94" cy="654.968" fill="#231f20" r="14.649"/><circle cx="624.456" cy="658.22" fill="#231f20" r="14.649"/><path d="M781.82 1086.752a2.023 2.023 0 0 1-1.749-1l-76.298-129.808a2.026 2.026 0 1 1 3.494-2.054l76.298 129.808a2.026 2.026 0 0 1-1.745 3.054z" fill="#231f20"/><path d="M705.568 1107.498c-66.84.006-128.331-44.314-147.055-111.784-10.897-39.267-5.851-80.427 14.21-115.898s52.734-61.007 92-71.905c31.994-8.877 65.212-7.22 96.063 4.797 29.829 11.619 55.755 32.761 73 59.533l.621.978a2.024 2.024 0 0 1-.625 2.799L712.6 952.83l143.468-1.236h.021c1.112 0 2.017.896 2.026 2.008.637 68.886-45.336 129.879-111.798 148.323a152.364 152.364 0 0 1-40.749 5.573zm.121-301.157c-13.331 0-26.711 1.821-39.881 5.476-78.906 21.897-125.286 103.907-103.388 182.813 21.897 78.906 103.906 125.285 182.813 103.389 64.045-17.773 108.545-76.132 108.834-142.354l-148.529 1.28h-.018a2.027 2.027 0 0 1-1.085-3.739l125.457-79.521c-16.779-25.698-41.813-45.997-70.577-57.201-17.331-6.75-35.431-10.143-53.626-10.143z" fill="#231f20"/><path d="M705.523 956.944a2.027 2.027 0 0 1-2.01-2.307l20.753-149.135a2.027 2.027 0 1 1 4.015.559l-20.753 149.135a2.027 2.027 0 0 1-2.005 1.748zm199.598-103.873-126.99 80.493 150.566-1.297h.002c-.119-12.88-1.906-25.956-5.514-38.957-4.062-14.639-10.153-28.169-17.883-40.372z" fill="#231f20"/><path d="M778.131 935.591a2.028 2.028 0 0 1-1.085-3.739l126.931-80.456.125-.091a2.023 2.023 0 0 1 2.912.548c7.993 12.617 14.091 26.383 18.124 40.914a153.027 153.027 0 0 1 5.587 39.48 2.028 2.028 0 0 1-2.009 2.045l-150.567 1.297c-.006.002-.012.002-.018.002zm126.54-79.835-119.46 75.72 141.426-1.219a148.932 148.932 0 0 0-5.405-36.406c-3.743-13.485-9.31-26.29-16.561-38.095zm-308.572-4.254c-34.966 37.067-50.253 90.986-35.633 143.67l145.054-40.254L596.1 851.504z" fill="#231f20"/><path d="M560.466 997.199a2.028 2.028 0 0 1-1.952-1.485c-7.15-25.766-7.423-52.994-.788-78.739 6.436-24.975 19.196-48.096 36.9-66.864a2.02 2.02 0 0 1 1.416-.635 2.006 2.006 0 0 1 1.45.553l109.421 103.416a2.028 2.028 0 0 1-.85 3.426l-145.054 40.254a2.04 2.04 0 0 1-.543.074zm35.726-142.821c-16.518 18-28.444 39.949-34.541 63.608-6.291 24.408-6.202 50.185.24 74.687l139.628-38.749z" fill="#231f20"/><path d="m129.953 866.713 369.382-23.484 26.334 414.211c.852 13.405-9.324 24.963-22.729 25.815l-320.838 20.398c-13.405.852-24.963-9.324-25.815-22.729z" fill="#fff"/><path d="M180.542 1305.729c-13.773 0-25.392-10.743-26.278-24.677l-26.463-416.233 373.427-23.742 26.463 416.233c.922 14.499-10.124 27.044-24.623 27.966l-320.838 20.398c-.564.037-1.129.055-1.688.055zm-48.438-437.122 26.206 412.188c.78 12.268 11.378 21.608 23.665 20.835l320.838-20.398c12.268-.78 21.614-11.396 20.834-23.665L497.44 845.38z" fill="#231f20"/><path d="m148.342 772.633 320.838-20.398c13.405-.852 24.963 9.324 25.815 22.729l4.34 68.265-369.382 23.484-4.34-68.265c-.853-13.405 9.323-24.962 22.729-25.815z" fill="#fff"/><path d="m128.059 868.864-4.468-70.288c-.447-7.023 1.868-13.8 6.519-19.083s11.08-8.437 18.104-8.883l.128 2.022-.128-2.022 320.838-20.398c7.025-.447 13.8 1.868 19.083 6.519s8.437 11.08 8.883 18.104l4.469 70.287zm342.695-114.652c-.48 0-.962.015-1.446.046L148.47 774.656a22.146 22.146 0 0 0-15.318 7.517 22.145 22.145 0 0 0-5.517 16.147l4.211 66.242 365.336-23.227-4.211-66.242a22.146 22.146 0 0 0-7.517-15.318c-4.104-3.615-9.278-5.563-14.7-5.563z" fill="#231f20"/><circle cx="182.639" cy="816.908" fill="#231f20" r="14.649"/><circle cx="233.157" cy="813.696" fill="#231f20" r="14.649"/><circle cx="283.676" cy="810.484" fill="#231f20" r="14.649"/><path d="m193.557 1037.4 8.41-.535 4.483 70.561-8.41.534z" fill="#231f20"/><path d="m196.197 1110.086-4.743-74.605 12.455-.792 4.744 74.605zm-.441-70.817 4.229 66.515 4.365-.278-4.229-66.514z" fill="#231f20"/><path d="m189.075 966.838 8.41-.534 4.482 70.56-8.41.535z" fill="#fff"/><path d="m191.711 1039.526-4.743-74.605 12.455-.792 4.743 74.605zm-.441-70.817 4.229 66.515 4.364-.277-4.229-66.515zm22.832 103.327 8.41-.534 4.482 70.56-8.41.535z" fill="#231f20"/><path d="M216.744 1144.721 212 1070.116l12.455-.792 4.744 74.605zm-.441-70.817 4.229 66.515 4.365-.277-4.229-66.515z" fill="#231f20"/><path d="m209.62 1001.475 8.41-.534 4.482 70.56-8.41.535z" fill="#fff"/><path d="m212.258 1074.161-4.743-74.605 12.455-.792 4.743 74.605zm-.441-70.817 4.229 66.515 4.364-.277-4.229-66.515zm22.637 100.295 8.41-.535 4.483 70.561-8.41.534z" fill="#231f20"/><path d="m237.098 1176.322-4.743-74.605 12.455-.792 4.743 74.605zm-.441-70.818 4.229 66.515 4.364-.277-4.229-66.515z" fill="#231f20"/><path d="m229.972 1033.077 8.41-.534 4.483 70.56-8.41.535z" fill="#fff"/><path d="m232.612 1105.762-4.744-74.605 12.456-.792 4.743 74.605zm-.441-70.817 4.229 66.514 4.364-.277-4.229-66.514zm17.599 20.999 8.41-.534 4.483 70.56-8.41.534z" fill="#231f20"/><path d="m252.41 1128.627-4.743-74.605 12.455-.792 4.743 74.605zm-.44-70.817 4.229 66.515 4.364-.277-4.229-66.515z" fill="#231f20"/><path d="m245.288 985.383 8.41-.535 4.482 70.56-8.41.535z" fill="#fff"/><path d="m247.924 1058.067-4.744-74.605 12.456-.792 4.743 74.605zm-.441-70.817 4.229 66.515 4.364-.277-4.229-66.515zm23.251 109.92 8.41-.534 4.483 70.56-8.41.535z" fill="#231f20"/><path d="m273.376 1169.852-4.743-74.605 12.455-.792 4.743 74.605zm-.44-70.817 4.229 66.515 4.364-.277-4.229-66.515z" fill="#231f20"/><path d="m266.252 1026.61 8.41-.535 4.482 70.56-8.41.535z" fill="#fff"/><path d="m268.89 1099.292-4.744-74.605 12.456-.792 4.743 74.605zm-.441-70.817 4.229 66.515 4.364-.277-4.229-66.515zm22.295 94.911 8.41-.534 4.483 70.56-8.41.534z" fill="#231f20"/><path d="m293.387 1196.066-4.743-74.605 12.455-.792 4.744 74.605zm-.44-70.817 4.229 66.514 4.365-.277-4.229-66.514z" fill="#231f20"/><path d="m286.262 1052.825 8.41-.535 4.482 70.56-8.41.535z" fill="#fff"/><path d="m288.901 1125.506-4.743-74.605 12.455-.792 4.743 74.605zm-.44-70.817 4.229 66.515 4.364-.277-4.229-66.515zm22.231 93.924 8.41-.534 4.483 70.56-8.41.535z" fill="#231f20"/><path d="m313.336 1221.292-4.743-74.605 12.455-.792 4.744 74.605zm-.44-70.817 4.229 66.515 4.365-.277-4.229-66.515z" fill="#231f20"/><path d="m306.21 1078.052 8.41-.534 4.483 70.56-8.41.534z" fill="#fff"/><path d="m308.85 1150.732-4.744-74.605 12.456-.792 4.743 74.605zm-.441-70.817 4.229 66.515 4.364-.277-4.229-66.515zm21.522 82.766 8.41-.534 4.483 70.56-8.41.535z" fill="#231f20"/><path d="m332.575 1235.359-4.743-74.605 12.455-.792 4.743 74.605zm-.44-70.817 4.229 66.515 4.364-.277-4.229-66.515z" fill="#231f20"/><path d="m325.448 1092.12 8.41-.534 4.483 70.56-8.41.535z" fill="#fff"/><path d="m328.089 1164.799-4.744-74.605 12.456-.792 4.743 74.605zm-.441-70.818 4.229 66.515 4.364-.277-4.229-66.515zm18.203 30.542 8.41-.535 4.483 70.56-8.41.535z" fill="#231f20"/><path d="m348.494 1197.2-4.744-74.605 12.456-.792 4.743 74.605zm-.441-70.818 4.229 66.515 4.364-.277-4.229-66.515z" fill="#231f20"/><path d="m341.369 1053.961 8.41-.534 4.482 70.56-8.41.535z" fill="#fff"/><path d="m344.008 1126.64-4.743-74.605 12.455-.792 4.744 74.605zm-.441-70.818 4.229 66.515 4.365-.277-4.229-66.515zm21.652 84.795 8.41-.535 4.482 70.561-8.41.534z" fill="#231f20"/><path d="m367.862 1213.292-4.743-74.605 12.455-.792 4.744 74.605zm-.441-70.817 4.229 66.515 4.365-.277-4.229-66.515z" fill="#231f20"/><path d="m360.736 1070.055 8.41-.534 4.483 70.56-8.41.535z" fill="#fff"/><path d="m363.376 1142.732-4.744-74.605 12.456-.792 4.743 74.605zm-.441-70.817 4.229 66.515 4.364-.277-4.229-66.515zm17.325 16.68 8.41-.535 4.482 70.561-8.41.534z" fill="#231f20"/><path d="m382.899 1161.271-4.744-74.605 12.456-.792 4.743 74.605zm-.441-70.818 4.229 66.515 4.364-.277-4.229-66.515z" fill="#231f20"/><path d="m375.777 1018.033 8.41-.534 4.483 70.56-8.41.535z" fill="#fff"/><path d="m378.413 1090.71-4.743-74.605 12.455-.792 4.744 74.605zm-.44-70.817 4.229 66.515 4.365-.277-4.229-66.515zm18.94 42.083 8.41-.534 4.483 70.56-8.41.535z" fill="#231f20"/><path d="m399.552 1134.652-4.743-74.605 12.455-.792 4.743 74.605zm-.441-70.817 4.229 66.515 4.364-.277-4.229-66.515z" fill="#231f20"/><path d="m392.43 991.415 8.41-.534 4.483 70.56-8.41.535z" fill="#fff"/><path d="m395.066 1064.092-4.744-74.605 12.456-.792 4.743 74.605zm-.441-70.817 4.229 66.515 4.364-.277-4.229-66.515zm19.516 51.118 8.41-.534 4.483 70.56-8.41.534z" fill="#231f20"/><path d="m416.779 1117.067-4.744-74.605 12.456-.792 4.743 74.605zm-.441-70.817 4.229 66.514 4.364-.277-4.229-66.515z" fill="#231f20"/><path d="m409.659 973.832 8.41-.535 4.482 70.56-8.41.535z" fill="#fff"/><path d="m412.292 1046.508-4.743-74.605 12.455-.792 4.744 74.605zm-.44-70.818 4.229 66.515 4.365-.278-4.229-66.514zm21.969 89.722 8.41-.534 4.483 70.56-8.41.535z" fill="#231f20"/><path d="m436.459 1138.086-4.743-74.605 12.455-.792 4.744 74.605zm-.44-70.817 4.229 66.515 4.365-.277-4.229-66.515z" fill="#231f20"/><path d="m429.339 994.85 8.41-.533 4.482 70.56-8.41.534z" fill="#fff"/><path d="m431.974 1067.526-4.743-74.605 12.455-.792 4.743 74.605zm-.441-70.817 4.229 66.514 4.364-.277-4.229-66.514zm16.433 2.573 8.41-.535 4.483 70.561-8.41.534z" fill="#231f20"/><path d="m450.6 1071.956-4.743-74.605 12.455-.792 4.743 74.605zm-.44-70.818 4.229 66.515 4.364-.277-4.229-66.515z" fill="#231f20"/><path d="m443.483 928.72 8.41-.534 4.483 70.56-8.41.535z" fill="#fff"/><path d="m446.114 1001.396-4.744-74.605 12.456-.792 4.743 74.605zm-.441-70.817 4.229 66.514 4.364-.277-4.229-66.514z" fill="#231f20"/><path d="m705.521 196.298 9.67 38.635 27.692-28.624-10.943 38.294 38.294-10.943-28.624 27.692 38.635 9.67-38.635 9.67 28.624 27.692-38.294-10.943 10.943 38.294-27.692-28.624-9.67 38.636-9.67-38.636-27.692 28.624 10.943-38.294-38.294 10.943 28.624-27.692-38.636-9.67 38.636-9.67-28.624-27.692 38.294 10.943-10.943-38.294 27.692 28.624z" fill="#fff"/><path d="M705.521 347.773c-.93 0-1.74-.633-1.966-1.535l-8.784-35.096-25.155 26.002a2.026 2.026 0 0 1-3.406-1.966l9.94-34.786-34.786 9.94a2.026 2.026 0 0 1-1.966-3.406l26.002-25.155-35.096-8.784a2.028 2.028 0 0 1 0-3.932l35.096-8.784-26.002-25.155a2.027 2.027 0 0 1 1.966-3.406l34.786 9.94-9.94-34.786a2.027 2.027 0 0 1 3.406-1.966l25.155 26.002 8.784-35.096a2.028 2.028 0 0 1 3.932 0l8.784 35.096 25.155-26.002a2.027 2.027 0 0 1 3.406 1.966l-9.94 34.786 34.787-9.94a2.026 2.026 0 0 1 1.966 3.406l-26.002 25.155 35.096 8.784a2.027 2.027 0 0 1 0 3.932l-35.096 8.784 26.002 25.155a2.027 2.027 0 0 1-1.966 3.406l-34.787-9.94 9.94 34.786a2.027 2.027 0 0 1-3.406 1.966l-25.155-26.002-8.784 35.096a2.027 2.027 0 0 1-1.966 1.535zm-9.67-42.689a2.026 2.026 0 0 1 1.966 1.534l7.704 30.78 7.704-30.78a2.026 2.026 0 0 1 3.423-.917l22.062 22.804-8.718-30.508a2.026 2.026 0 0 1 2.506-2.506l30.509 8.718-22.805-22.062a2.025 2.025 0 0 1 .917-3.423l30.78-7.704-30.78-7.704a2.026 2.026 0 0 1-.917-3.423l22.805-22.062-30.509 8.718a2.026 2.026 0 0 1-2.506-2.506l8.718-30.508-22.062 22.804a2.026 2.026 0 0 1-3.423-.917l-7.704-30.78-7.704 30.78a2.026 2.026 0 0 1-3.423.917l-22.062-22.804 8.718 30.508a2.026 2.026 0 0 1-2.506 2.506l-30.508-8.718 22.804 22.062a2.025 2.025 0 0 1-.917 3.423l-30.78 7.704 30.78 7.704a2.026 2.026 0 0 1 .917 3.423l-22.804 22.062 30.508-8.718a2.03 2.03 0 0 1 2.506 2.506l-8.718 30.508 22.062-22.804a2.03 2.03 0 0 1 1.457-.617zm112.956 963.221 4.519 11.744 11.743 4.519-11.743 4.519-4.519 11.743-4.524-11.739-11.739-4.523 11.744-4.519zM75.266 709.013l4.519 11.743 11.744 4.519-11.744 4.519-4.519 11.744-4.523-11.739-11.74-4.524 11.744-4.519zm1338.798 152.24 4.519 11.743 11.744 4.519-11.744 4.519-4.519 11.744-4.523-11.739-11.739-4.524 11.743-4.519zm-319.773-621.904 4.518 11.743 11.744 4.519-11.744 4.519-4.518 11.744-4.524-11.739-11.739-4.524 11.743-4.519zm-531.25 511.713 4.519 11.743 11.744 4.519-11.744 4.519-4.519 11.744-4.523-11.739-11.739-4.524 11.743-4.519zM272.746 266.259l4.519 11.744 11.744 4.519-11.744 4.519-4.519 11.743-4.523-11.739-11.74-4.523 11.744-4.519z" fill="#231f20"/></svg>