<svg height="1500" viewBox="0 0 1500 1500" width="1500" xmlns="http://www.w3.org/2000/svg"><g fill="#231f20"><path d="M1161.891 1023.283c-37.966 0-68.853-30.887-68.853-68.853s30.887-68.853 68.853-68.853 68.853 30.887 68.853 68.853-30.887 68.853-68.853 68.853zm0-135.022c-36.485 0-66.169 29.684-66.169 66.169s29.684 66.169 66.169 66.169 66.169-29.684 66.169-66.169-29.684-66.169-66.169-66.169z"/><path d="M1094.38 953.089h135.021v2.684H1094.38z"/><path d="M1160.549 886.92h2.684v135.021h-2.684z"/><path d="m1162.962 1022.75-2.144-1.616c.223-.296 22.234-29.939 22.234-66.703 0-36.765-22.012-66.407-22.234-66.703l2.144-1.616c.229.303 22.774 30.633 22.774 68.319.001 37.685-22.545 68.016-22.774 68.319z"/><path d="m1162.317 1023.214-.853-2.545c.44-.148 44.092-15.406 44.092-66.238s-43.651-66.09-44.092-66.238l.853-2.545c.471.157 11.653 3.975 22.985 14.37 10.464 9.599 22.938 26.831 22.938 54.413s-12.474 44.814-22.938 54.413c-11.332 10.395-22.514 14.212-22.985 14.37z"/><path d="M1160.82 1022.75c-.229-.303-22.774-30.634-22.774-68.319 0-37.687 22.546-68.017 22.774-68.319l2.144 1.616c-.223.296-22.234 29.938-22.234 66.703 0 36.764 22.012 66.407 22.234 66.703z"/><path d="M1161.465 1023.214c-.471-.157-11.653-3.975-22.985-14.37-10.464-9.599-22.938-26.831-22.938-54.413s12.474-44.814 22.938-54.413c11.332-10.396 22.515-14.213 22.985-14.37l.853 2.545c-.44.148-44.092 15.406-44.092 66.238s43.651 66.09 44.092 66.238z"/><path d="M1221.74 985.901c-6.699-2.877-25.94-9.569-59.849-9.569-33.907 0-53.148 6.691-59.848 9.568l-1.059-2.467c6.851-2.942 26.501-9.785 60.906-9.785 34.407 0 54.057 6.844 60.907 9.786zm-103.707 20.573-1.145-2.428c7.644-3.602 21.656-7.895 45.003-7.895 23.212 0 37.195 4.251 44.838 7.816l-1.135 2.434c-7.396-3.452-20.983-7.566-43.703-7.566-22.85.001-36.463 4.155-43.858 7.639zm43.858-71.261c-34.398 0-54.053-6.843-60.906-9.785l1.059-2.467c6.701 2.877 25.947 9.568 59.848 9.568 33.908 0 53.149-6.692 59.849-9.569l1.059 2.467c-6.852 2.942-26.502 9.786-60.909 9.786zm0-22.504c-23.343 0-37.356-4.293-45.003-7.895l1.145-2.428c7.397 3.484 21.012 7.639 43.858 7.639 22.72 0 36.307-4.114 43.703-7.566l1.135 2.434c-7.643 3.565-21.626 7.816-44.838 7.816zm-764.016 182.748c-17.528 0-33.907-1.37-49.075-4.115-41.276-7.471-71.706-24.841-90.445-51.629s-24.624-61.33-17.488-102.666c6.86-39.748 25.421-84.102 55.167-131.83 61.078-98.005 162.482-199.384 285.534-285.463s253.055-146.578 366.061-170.351c55.033-11.577 103.065-13.807 142.754-6.623 41.276 7.47 71.707 24.841 90.446 51.629 18.739 26.789 24.623 61.33 17.488 102.666-6.861 39.747-25.422 84.102-55.167 131.83-61.078 98.004-162.483 199.383-285.535 285.462-123.053 86.079-253.055 146.578-366.061 170.352-34.003 7.153-65.338 10.738-93.679 10.738zm643.656-754.048c-120.004 0-292.226 64.282-458.424 180.544-122.762 85.877-223.904 186.979-284.796 284.683-29.561 47.433-47.998 91.463-54.8 130.867-7.01 40.612-1.275 74.482 17.043 100.67 18.319 26.188 48.17 43.187 88.725 50.526 39.348 7.123 87.029 4.899 141.724-6.608 112.658-23.7 242.311-84.048 365.073-169.924 253.114-177.062 397.811-408.638 322.554-516.22-25.843-36.941-74.341-54.538-137.099-54.538z"/></g><path d="M410.587 518.025h712.746v551.174c0 16.574-13.436 30.01-30.01 30.01H440.597c-16.574 0-30.01-13.436-30.01-30.01z" fill="#fff"/><path d="M1093.324 1100.551H440.597c-17.287 0-31.352-14.064-31.352-31.352V516.682h715.43v552.517c0 17.287-14.064 31.352-31.351 31.352zM411.929 519.366v549.833c0 15.808 12.86 28.668 28.668 28.668h652.727c15.808 0 28.668-12.86 28.668-28.668V519.366z" fill="#231f20"/><path d="M440.597 387.424h652.727c16.574 0 30.01 13.436 30.01 30.01v100.591H410.587V417.434c0-16.574 13.436-30.01 30.01-30.01z" fill="#231f20"/><path d="M1124.675 519.366h-715.43V417.434c0-17.288 14.064-31.353 31.352-31.353h652.727c17.287 0 31.352 14.064 31.352 31.353v101.932zm-712.746-2.684h710.062v-99.248c0-15.808-12.86-28.669-28.668-28.669H440.597c-15.808 0-28.668 12.861-28.668 28.669z" fill="#231f20"/><ellipse cx="491.161" cy="452.724" fill="#fff" rx="21.175" ry="20.633"/><path d="M491.161 474.699c-12.416 0-22.517-9.857-22.517-21.975s10.101-21.975 22.517-21.975 22.518 9.857 22.518 21.975-10.102 21.975-22.518 21.975zm0-41.266c-10.936 0-19.833 8.654-19.833 19.291s8.897 19.291 19.833 19.291c10.937 0 19.834-8.654 19.834-19.291s-8.898-19.291-19.834-19.291z" fill="#fff"/><ellipse cx="564.335" cy="452.724" fill="#fff" rx="21.175" ry="20.633"/><path d="M564.335 474.699c-12.416 0-22.517-9.857-22.517-21.975s10.101-21.975 22.517-21.975 22.517 9.857 22.517 21.975-10.101 21.975-22.517 21.975zm0-41.266c-10.936 0-19.833 8.654-19.833 19.291s8.897 19.291 19.833 19.291 19.833-8.654 19.833-19.291-8.897-19.291-19.833-19.291z" fill="#fff"/><ellipse cx="637.51" cy="452.724" fill="#fff" rx="21.175" ry="20.633"/><path d="M637.509 474.699c-12.416 0-22.517-9.857-22.517-21.975s10.101-21.975 22.517-21.975 22.518 9.857 22.518 21.975-10.102 21.975-22.518 21.975zm0-41.266c-10.936 0-19.833 8.654-19.833 19.291s8.897 19.291 19.833 19.291c10.937 0 19.834-8.654 19.834-19.291s-8.897-19.291-19.834-19.291zm27.882 702.262h246.57l21.938-17.726 21.938 17.726h246.57a7.899 7.899 0 0 1 7.899 7.899v108.967a7.899 7.899 0 0 1-7.899 7.899H665.391a7.899 7.899 0 0 1-7.899-7.899v-108.967a7.899 7.899 0 0 1 7.899-7.899z" fill="#fff"/><path d="M1202.409 1261.802H665.391c-5.096 0-9.241-4.146-9.241-9.241v-108.967c0-5.096 4.146-9.241 9.241-9.241h246.096l22.413-18.109 22.413 18.109h246.096c5.096 0 9.241 4.146 9.241 9.241v108.967c0 5.096-4.146 9.241-9.241 9.241zm-537.018-124.765a6.566 6.566 0 0 0-6.558 6.558v108.967a6.566 6.566 0 0 0 6.558 6.558h537.018a6.566 6.566 0 0 0 6.558-6.558v-108.967a6.566 6.566 0 0 0-6.558-6.558H955.364l-21.464-17.342-21.464 17.342z" fill="#231f20"/><path d="m736.852 1162.939 10.94 22.167 24.463 3.555-17.702 17.255 4.179 24.364-21.88-11.503-21.881 11.503 4.179-24.364-17.702-17.255 24.463-3.555z" fill="#231f20"/><path d="M758.732 1231.622c-.214 0-.428-.051-.625-.153l-21.256-11.175-21.255 11.175a1.344 1.344 0 0 1-1.948-1.415l4.06-23.669-17.195-16.763a1.342 1.342 0 0 1 .743-2.289l23.765-3.453 10.627-21.534a1.344 1.344 0 0 1 2.408 0l10.628 21.534 23.765 3.453a1.343 1.343 0 0 1 .743 2.289l-17.195 16.763 4.06 23.669a1.343 1.343 0 0 1-1.325 1.568zm-21.881-14.187c.215 0 .429.051.625.153l19.474 10.238-3.72-21.685c-.074-.436.07-.879.387-1.188l15.753-15.356-21.771-3.164a1.341 1.341 0 0 1-1.01-.734l-9.737-19.728-9.735 19.728a1.343 1.343 0 0 1-1.011.734l-21.771 3.164 15.753 15.356c.316.309.461.752.387 1.188l-3.72 21.685 19.473-10.238c.194-.102.408-.153.623-.153zm98.525-54.496 10.94 22.167 24.463 3.555-17.702 17.255 4.179 24.364-21.88-11.503-21.881 11.503 4.179-24.364-17.702-17.255 24.463-3.555z" fill="#231f20"/><path d="M857.256 1231.622c-.214 0-.428-.051-.625-.153l-21.256-11.175-21.255 11.175a1.344 1.344 0 0 1-1.948-1.415l4.06-23.669-17.196-16.763a1.342 1.342 0 0 1 .743-2.289l23.765-3.453 10.629-21.534a1.341 1.341 0 0 1 2.406 0l10.629 21.534 23.765 3.453a1.343 1.343 0 0 1 .743 2.289l-17.195 16.763 4.06 23.669a1.343 1.343 0 0 1-1.325 1.568zm-21.881-14.187c.215 0 .429.051.625.153l19.474 10.238-3.72-21.685c-.074-.436.07-.879.387-1.188l15.753-15.356-21.771-3.164a1.341 1.341 0 0 1-1.01-.734l-9.737-19.728-9.737 19.728a1.34 1.34 0 0 1-1.01.734l-21.771 3.164 15.754 15.356c.316.309.461.752.387 1.188l-3.72 21.685 19.473-10.238c.195-.102.409-.153.623-.153zm98.525-54.496 10.94 22.167 24.463 3.555-17.702 17.255 4.179 24.364-21.88-11.503-21.881 11.503 4.179-24.364-17.701-17.255 24.463-3.555z" fill="#231f20"/><path d="M912.019 1231.622a1.341 1.341 0 0 1-1.323-1.568l4.06-23.669-17.195-16.763a1.342 1.342 0 0 1 .743-2.289l23.765-3.453 10.629-21.534a1.341 1.341 0 0 1 2.406 0l10.629 21.534 23.765 3.453a1.341 1.341 0 0 1 .743 2.289l-17.196 16.763 4.06 23.669a1.343 1.343 0 0 1-1.948 1.415l-21.255-11.175-21.256 11.175a1.372 1.372 0 0 1-.627.153zm-10.638-42.024 15.753 15.356c.316.309.461.752.387 1.188l-3.72 21.685 19.474-10.238a1.347 1.347 0 0 1 1.25 0l19.473 10.238-3.72-21.685c-.074-.436.07-.879.387-1.188l15.754-15.356-21.771-3.164a1.341 1.341 0 0 1-1.01-.734l-9.737-19.728-9.737 19.728a1.34 1.34 0 0 1-1.01.734zm131.043-26.659 10.94 22.167 24.463 3.555-17.702 17.255 4.179 24.364-21.88-11.503-21.88 11.503 4.178-24.364-17.701-17.255 24.463-3.555z" fill="#231f20"/><path d="M1010.543 1231.622a1.341 1.341 0 0 1-1.323-1.568l4.06-23.669-17.195-16.763a1.342 1.342 0 0 1 .743-2.289l23.765-3.453 10.629-21.534a1.341 1.341 0 0 1 2.407 0l10.627 21.534 23.765 3.453a1.343 1.343 0 0 1 .743 2.289l-17.195 16.763 4.06 23.669a1.343 1.343 0 0 1-1.948 1.415l-21.255-11.175-21.256 11.175a1.372 1.372 0 0 1-.627.153zm-10.637-42.024 15.753 15.356c.316.309.461.752.387 1.188l-3.72 21.685 19.474-10.238a1.347 1.347 0 0 1 1.25 0l19.473 10.238-3.72-21.685c-.074-.436.07-.879.387-1.188l15.753-15.356-21.771-3.164a1.345 1.345 0 0 1-1.011-.734l-9.735-19.728-9.737 19.728a1.34 1.34 0 0 1-1.01.734zm131.042-26.659 10.94 22.167 24.463 3.555-17.701 17.255 4.178 24.364-21.88-11.503-21.88 11.503 4.178-24.364-17.701-17.255 24.463-3.555z" fill="#231f20"/><path d="M1152.829 1231.622c-.214 0-.428-.051-.625-.153l-21.256-11.175-21.255 11.175a1.344 1.344 0 0 1-1.948-1.415l4.06-23.669-17.196-16.763a1.342 1.342 0 0 1 .743-2.289l23.766-3.453 10.627-21.534a1.344 1.344 0 0 1 2.407 0l10.629 21.534 23.765 3.453a1.343 1.343 0 0 1 .743 2.289l-17.195 16.763 4.06 23.669a1.343 1.343 0 0 1-1.325 1.568zm-21.881-14.187c.215 0 .429.051.625.153l19.474 10.238-3.72-21.685c-.074-.436.07-.879.387-1.188l15.753-15.356-21.771-3.164a1.341 1.341 0 0 1-1.01-.734l-9.737-19.728-9.735 19.728a1.343 1.343 0 0 1-1.011.734l-21.772 3.164 15.754 15.356c.316.309.461.752.387 1.188l-3.72 21.685 19.473-10.238c.194-.102.408-.153.623-.153z" fill="#231f20"/><circle cx="766.96" cy="808.617" fill="#fff" r="150.495"/><path d="M766.96 960.453c-83.724 0-151.837-68.113-151.837-151.836 0-83.724 68.113-151.837 151.837-151.837 83.723 0 151.836 68.113 151.836 151.837 0 83.723-68.113 151.836-151.836 151.836zm0-300.989c-82.243 0-149.153 66.91-149.153 149.153 0 82.242 66.91 149.152 149.153 149.152 82.242 0 149.152-66.91 149.152-149.152.001-82.243-66.909-149.153-149.152-149.153z" fill="#231f20"/><path d="M766.96 916.404c-45.789 0-86.701-29.077-101.807-72.354l2.535-.885c14.729 42.201 54.623 70.556 99.271 70.556 44.647 0 84.542-28.354 99.271-70.556l2.535.885c-15.104 43.277-56.016 72.354-101.805 72.354z" fill="#231f20"/><path d="M873.408 846.881c-8.918 0-16.077-3.775-16.403-3.95l1.267-2.367c.081.042 8.164 4.293 17.385 3.543l.217 2.676c-.834.066-1.658.098-2.466.098zm-213.694 0c-.809 0-1.631-.031-2.465-.099l.217-2.676c9.251.753 17.305-3.499 17.385-3.543l1.268 2.367c-.327.175-7.487 3.951-16.405 3.951z" fill="#231f20"/><ellipse cx="804.549" cy="766.483" fill="#231f20" rx="24.133" ry="50.871"/><ellipse cx="729.371" cy="766.483" fill="#231f20" rx="24.133" ry="50.871"/><path d="M988.734 426.978h-70.501l-21.939 17.726-21.938-17.726h-70.501a7.899 7.899 0 0 1-7.899-7.899V268.535a7.899 7.899 0 0 1 7.899-7.899h184.88a7.899 7.899 0 0 1 7.899 7.899v150.543a7.9 7.9 0 0 1-7.9 7.9z" fill="#fff"/><path d="m896.294 446.429-22.413-18.109h-70.027c-5.096 0-9.241-4.146-9.241-9.241V268.536c0-5.096 4.146-9.241 9.241-9.241h184.88c5.096 0 9.241 4.146 9.241 9.241v150.543c0 5.096-4.146 9.241-9.241 9.241h-70.026zm-92.44-184.451a6.566 6.566 0 0 0-6.558 6.558v150.543a6.566 6.566 0 0 0 6.558 6.558h70.977l21.464 17.342 21.464-17.342h70.976a6.566 6.566 0 0 0 6.558-6.558V268.536a6.566 6.566 0 0 0-6.558-6.558z" fill="#231f20"/><path d="M946.963 311.079c-21.846-28.216-50.669 6.371-50.669 6.371s-28.823-34.588-50.668-6.371c-21.845 28.216 50.668 82.525 50.668 82.525s72.513-54.309 50.669-82.525z" fill="#231f20"/><path d="M439.74 827.951h-70.501L347.3 845.677l-21.938-17.726H254.86a7.899 7.899 0 0 1-7.899-7.899V669.508a7.899 7.899 0 0 1 7.899-7.899h184.88a7.899 7.899 0 0 1 7.899 7.899v150.543a7.9 7.9 0 0 1-7.899 7.9z" fill="#fff"/><path d="m347.299 847.402-22.413-18.109H254.86c-5.096 0-9.241-4.146-9.241-9.241V669.509c0-5.096 4.146-9.241 9.241-9.241h184.88c5.096 0 9.241 4.146 9.241 9.241v150.543c0 5.096-4.146 9.241-9.241 9.241h-70.027zM254.86 662.951a6.566 6.566 0 0 0-6.558 6.558v150.543a6.566 6.566 0 0 0 6.558 6.558h70.976l21.464 17.342 21.464-17.342h70.977a6.566 6.566 0 0 0 6.558-6.558V669.509a6.566 6.566 0 0 0-6.558-6.558z" fill="#231f20"/><path d="M397.968 712.051c-21.846-28.216-50.669 6.371-50.669 6.371s-28.823-34.588-50.668-6.371c-21.845 28.216 50.668 82.525 50.668 82.525s72.514-54.308 50.669-82.525z" fill="#231f20"/><path d="M1251.032 721.392h-70.501l-21.939 17.726-21.938-17.726h-70.501a7.899 7.899 0 0 1-7.899-7.899V562.95a7.899 7.899 0 0 1 7.899-7.899h184.88a7.899 7.899 0 0 1 7.899 7.899v150.543a7.9 7.9 0 0 1-7.9 7.899z" fill="#fff"/><path d="m1158.592 740.844-22.413-18.109h-70.026c-5.096 0-9.241-4.146-9.241-9.241V562.95c0-5.096 4.146-9.241 9.241-9.241h184.88c5.096 0 9.241 4.146 9.241 9.241v150.543c0 5.096-4.146 9.241-9.241 9.241h-70.027zm-92.439-184.452a6.566 6.566 0 0 0-6.558 6.558v150.543a6.566 6.566 0 0 0 6.558 6.558h70.976l21.464 17.342 21.464-17.342h70.977a6.566 6.566 0 0 0 6.558-6.558V562.95a6.566 6.566 0 0 0-6.558-6.558z" fill="#231f20"/><path d="M1209.261 605.493c-21.846-28.216-50.669 6.371-50.669 6.371s-28.823-34.588-50.668-6.371c-21.845 28.216 50.668 82.525 50.668 82.525s72.514-54.309 50.669-82.525zm-789.752 421.008 10.767 23.604 21.126-15.059-2.478 25.826 25.825-2.478-15.058 21.126 23.604 10.766-23.604 10.767 15.058 21.126-25.825-2.478 2.478 25.825-21.126-15.058-10.767 23.604-10.767-23.604-21.126 15.058 2.478-25.825-25.825 2.478 15.059-21.126-23.605-10.767 23.605-10.766-15.059-21.126 25.825 2.478-2.478-25.826 21.126 15.059z" fill="#231f20"/><path d="M419.509 1155.414a1.343 1.343 0 0 1-1.221-.785l-10.092-22.124-19.802 14.114a1.34 1.34 0 0 1-2.115-1.221l2.323-24.206-24.206 2.323a1.342 1.342 0 0 1-1.221-2.115l14.114-19.801-22.124-10.092a1.34 1.34 0 0 1 0-2.442l22.124-10.092-14.114-19.802a1.343 1.343 0 0 1 1.221-2.115l24.206 2.323-2.323-24.206a1.34 1.34 0 0 1 2.115-1.221l19.802 14.114 10.092-22.124a1.34 1.34 0 0 1 2.442 0l10.092 22.124 19.801-14.114a1.344 1.344 0 0 1 2.115 1.221l-2.322 24.206 24.206-2.323a1.342 1.342 0 0 1 1.221 2.115l-14.114 19.802 22.123 10.092a1.34 1.34 0 0 1 0 2.442l-22.123 10.092 14.114 19.801c.306.429.332.995.069 1.45a1.334 1.334 0 0 1-1.29.665l-24.206-2.323 2.322 24.206a1.34 1.34 0 0 1-2.115 1.221l-19.801-14.114-10.092 22.124a1.342 1.342 0 0 1-1.221.785zm-10.766-26.288a1.34 1.34 0 0 1 1.221.785l9.546 20.927 9.546-20.927a1.34 1.34 0 0 1 2-.536l18.729 13.351-2.196-22.896a1.344 1.344 0 0 1 1.464-1.464l22.896 2.197-13.351-18.729a1.344 1.344 0 0 1 .536-2l20.926-9.546-20.926-9.546a1.34 1.34 0 0 1-.536-2l13.351-18.73-22.896 2.197a1.344 1.344 0 0 1-1.464-1.464l2.196-22.896-18.729 13.351a1.34 1.34 0 0 1-2-.536l-9.546-20.927-9.546 20.927a1.34 1.34 0 0 1-2 .536l-18.73-13.351 2.197 22.896a1.344 1.344 0 0 1-1.464 1.464l-22.896-2.197 13.351 18.73a1.344 1.344 0 0 1-.536 2l-20.927 9.546 20.927 9.546a1.34 1.34 0 0 1 .536 2l-13.351 18.729 22.896-2.197a1.344 1.344 0 0 1 1.464 1.464l-2.197 22.896 18.73-13.351a1.34 1.34 0 0 1 .779-.249zm87.562-910.683 5.862 15.235 15.234 5.862-15.234 5.862-5.862 15.234-5.868-15.228-15.228-5.868 15.234-5.862zM241.068 473.357l5.862 15.234 15.235 5.862-15.235 5.862-5.862 15.235-5.868-15.229-15.228-5.868 15.234-5.862zm729.291 489.436 5.862 15.235 15.235 5.862-15.235 5.862-5.862 15.234-5.868-15.228-15.228-5.868 15.234-5.862zm-601.963 276.571 5.862 15.234 15.235 5.862-15.235 5.863-5.862 15.234-5.868-15.229-15.228-5.868 15.234-5.862zm890.536-913.658 5.862 15.234 15.234 5.862-15.234 5.862-5.862 15.234-5.868-15.228-15.229-5.868 15.235-5.862z" fill="#231f20"/></svg>