<?xml version="1.0" encoding="UTF-8" standalone="no"?>
<!DOCTYPE svg PUBLIC "-//W3C//DTD SVG 1.1//EN" "http://www.w3.org/Graphics/SVG/1.1/DTD/svg11.dtd">
<svg width="100%" height="100%" viewBox="0 0 2000 2000" version="1.1" xmlns="http://www.w3.org/2000/svg" xmlns:xlink="http://www.w3.org/1999/xlink" xml:space="preserve" xmlns:serif="http://www.serif.com/" style="fill-rule:evenodd;clip-rule:evenodd;stroke-linejoin:round;stroke-miterlimit:2;">
    <g transform="matrix(1,0,0,1,-2141.8,0)">
        <g id="Twitter-X-Logo_black" transform="matrix(1,0,0,1,2141.8,0)">
            <rect x="0" y="0" width="2000" height="2000" style="fill:none;"/>
            <g transform="matrix(6.1391,0,0,6.1391,-13281.2,-3128.63)">
                <path d="M2289.73,688.827L2174.13,522.544L2262.23,522.544L2339.45,632.381L2436.47,522.544L2462.03,522.544L2350.85,648.843L2472.28,822.491L2383.9,822.491L2301.17,705.59L2198.92,822.491L2172.36,822.491L2289.73,688.827ZM2250.3,541.545L2208.09,541.545L2397.23,805.117L2437.69,805.117L2250.3,541.545Z" style="fill-rule:nonzero;"/>
            </g>
        </g>
    </g>
</svg>
